<?xml version="1.0" encoding="utf-8"?>
<?xml-stylesheet type="text/xsl" href="rss1.xsl"?>
<rss version="2.0" xmlns:atom="http://www.w3.org/2005/Atom" xmlns:content="http://purl.org/rss/1.0/modules/content/" xmlns:dc="http://purl.org/dc/elements/1.1/" xmlns:media="http://search.yahoo.com/mrss/">
<channel>
 <title>Getty</title>
 <link>http://www.gettyimg.com/</link>
 <atom:link href="http://www.gettyimg.com/" rel="self" type="application/rss+xml" />

 
                <item>
                <title><![CDATA[【HD Live Performances】WEB-RiP - Kylie at The BBC 2023 (90 Min.)- BBC WEB-RIP.1080p-fstambuk]]></title>
                <link><![CDATA[https://sharemania.us/threads/kylie-at-the-bbc-2023-90-min-bbc-web-rip-1080p-fstambuk.229426/]]></link>
                <description><![CDATA[<article>
<blockquote class="messageText SelectQuoteContainer ugc baseHtml">
<div style="text-align: center"><img src="https://i.postimg.cc/brbxQMfy/p0d0vq4v.jpg" class="bbCodeImage LbImage" alt="[​IMG]" data-url="https://i.postimg.cc/brbxQMfy/p0d0vq4v.jpg" style=""><br>
<br>
<i>A journey back in time for a selection of Kylie’s best and biggest performances on the BBC.<br>
Together, this collection of magical BBC moments highlights why Kylie has always had a special place in the British public’s hearts.</i><br>
<br>
<img src="https://i.imgur.com/tPrYeBi.gif" class="bbCodeImage LbImage" alt="[​IMG]" data-url="https://i.imgur.com/tPrYeBi.gif" style=""><br>
<br>
<br>
​</div>
<div class="ToggleTriggerAnchor bbCodeSpoilerContainer">
<button type="button" class="button bbCodeSpoilerButton ToggleTrigger Tooltip JsOnly" data-target="> .SpoilerTarget"><span>Spoiler: <span class="SpoilerTitle">BBC TWO</span></span></button>
<div class="SpoilerTarget bbCodeSpoilerText">
<div class="bbCodeBlock bbCodeCode">
<div class="type">Code:</div>
<pre>Format                                   : MPEG-4
Format profile                           : Base Media
Codec ID                                 : isom (isom/iso2/avc1/mp41)
File size                                : 6.51 GiB
Duration                                 : 1 h 28 min
Overall bit rate mode                    : Variable
Overall bit rate                         : 10.5 Mb/s
Collection                               : Kylie at the BBC
Album                                    : Kylie at the BBC
Album/Performer                          : BBC TV
Track name                               : Kylie at the BBC
Grouping                                 : Performances &amp; Events,Music
Performer                                : BBC Two
Composer                                 : BBC iPlayer
Genre                                    : Performances &amp; Events
ContentType                              : TV Show
Description                              : A journey back in time for some of Kylie's best and biggest performances on the BBC.
Recorded date                            : 2022-09-24T21:10:00+01:00
Tagged date                              : UTC 2023-09-29 13:19:59
Copyright                                : 2023 British Broadcasting Corporation, all rights reserved
Cover                                    : Yes
Lyrics                                   : A journey back in time for a selection of Kylie's best and biggest performances on the BBC. /  / It's a journey from the early, girl-next-door days with Stock Aitken Waterman to the boundary-pushing dance sounds of the 90s, 00s and beyond. Along for the ride are some of the eclectic mix of stars Kylie has collaborated with over the years, including Robbie Williams, Nick Cave and Jason Donovan. /  / Together, this collection of magical BBC moments highlights why Kylie has always had a special place in the British public's hearts. /  / PLAY: https://www.bbc.co.uk/iplayer/episode/m001cblp /  / INFO: https://www.bbc.co.uk/programmes/m001cblp
Comment                                  : A journey back in time for some of Kylie's best and biggest performances on the BBC.
Part_ID                                  : 202209242110
TVNetworkName                            : BBC Two
LongDescription                          : A journey back in time for a selection of Kylie's best and biggest performances on the BBC. /  / It's a journey from the early, girl-next-door days with Stock Aitken Waterman to the boundary-pushing dance sounds of the 90s, 00s and beyond. Along for the ride are some of the eclectic mix of stars Kylie has collaborated with over the years, including Robbie Williams, Nick Cave and Jason Donovan. /  / Together, this collection of magical BBC moments highlights why Kylie has always had a special place in the British public's hearts. /  / PLAY: https://www.bbc.co.uk/iplayer/episode/m001cblp /  / INFO: https://www.bbc.co.uk/programmes/m001cblp

Video
ID                                       : 1
Format                                   : AVC
Format/Info                              : Advanced Video Codec
Format profile                           : High@L4.2
Format settings                          : CABAC / 4 Ref Frames
Format settings, CABAC                   : Yes
Format settings, Reference frames        : 4 frames
Codec ID                                 : avc1
Codec ID/Info                            : Advanced Video Coding
Duration                                 : 1 h 28 min
Bit rate mode                            : Variable
Bit rate                                 : 10.4 Mb/s
Maximum bit rate                         : 12.0 Mb/s
Width                                    : 1 920 pixels
Height                                   : 1 080 pixels
Display aspect ratio                     : 16:9
Frame rate mode                          : Constant
Frame rate                               : 50.000 FPS
Color space                              : YUV
Chroma subsampling                       : 4:2:0
Bit depth                                : 8 bits
Scan type                                : Progressive
Bits/(Pixel*Frame)                       : 0.100
Stream size                              : 6.42 GiB (99%)
Color range                              : Limited
Color primaries                          : BT.709
Transfer characteristics                 : BT.709
Matrix coefficients                      : BT.709
Codec configuration box                  : avcC

Audio
ID                                       : 2
Format                                   : AAC LC
Format/Info                              : Advanced Audio Codec Low Complexity
Codec ID                                 : mp4a-40-2
Duration                                 : 1 h 28 min
Bit rate mode                            : Variable
Bit rate                                 : 128 kb/s
Maximum bit rate                         : 131 kb/s / 131 kb/s
Channel(s)                               : 2 channels
Channel layout                           : L R
Sampling rate                            : 48.0 kHz
Frame rate                               : 46.875 FPS (1024 SPF)
Compression mode                         : Lossy
Stream size                              : 81.3 MiB (1%)
Language                                 : English
Default                                  : Yes
Alternate group                          : 1</pre>
</div><div style="text-align: center">​</div></div>
</div><div style="text-align: center"><br>
<br>
<div class="bbCodeBlock bbCodeVfcHH HiddenContent">
<div class="attribution type">Hidden Content:</div>
<blockquote>You must reply before you can see the hidden data contained here.</blockquote>
</div></div>
<div class="messageTextEndMarker">&nbsp;</div>
</blockquote>
</article>]]></description>
                <author><![CDATA[fstambuk]]></author>
                </item>

                </channel></rss>